<svg width="24" height="24" viewBox="0 0 24 24" fill="none" xmlns="http://www.w3.org/2000/svg">
<path d="M12 3C10.22 3 8.47991 3.52784 6.99987 4.51677C5.51983 5.50571 4.36628 6.91131 3.68509 8.55585C3.0039 10.2004 2.82567 12.01 3.17294 13.7558C3.5202 15.5016 4.37737 17.1053 5.63604 18.364C6.89472 19.6226 8.49836 20.4798 10.2442 20.8271C11.99 21.1743 13.7996 20.9961 15.4442 20.3149C17.0887 19.6337 18.4943 18.4802 19.4832 17.0001C20.4722 15.5201 21 13.78 21 12C20.9931 9.61516 20.0427 7.32996 18.3564 5.64362C16.67 3.95727 14.3848 3.00686 12 3V3ZM19.725 12C19.7177 13.5354 19.2552 15.0341 18.3961 16.3067C17.5369 17.5792 16.3197 18.5684 14.8984 19.1492C13.477 19.7299 11.9154 19.8762 10.4109 19.5694C8.9065 19.2626 7.52681 18.5165 6.44637 17.4256C5.36593 16.3347 4.63326 14.9478 4.34101 13.4405C4.04876 11.9332 4.21007 10.373 4.80453 8.95733C5.39899 7.54167 6.3999 6.33408 7.68069 5.48728C8.96148 4.64048 10.4646 4.1925 12 4.2C13.0224 4.19443 14.0356 4.39293 14.9802 4.78389C15.9249 5.17484 16.782 5.75038 17.5015 6.47679C18.2209 7.2032 18.7881 8.06587 19.1699 9.01428C19.5517 9.96268 19.7405 10.9777 19.725 12Z" fill="#333333"/>
<path d="M11.995 7.22C11.7308 7.22337 11.4784 7.32981 11.2916 7.51662C11.1048 7.70343 10.9984 7.95583 10.995 8.22C11.01 8.48857 11.1179 8.74354 11.3004 8.94116C11.4829 9.13878 11.7285 9.26672 11.995 9.303C12.276 9.28404 12.5406 9.16385 12.7397 8.96471C12.9388 8.76557 13.059 8.50099 13.078 8.22C13.0561 7.94774 12.9326 7.69368 12.7319 7.50838C12.5312 7.32309 12.2681 7.22013 11.995 7.22Z" fill="#333333"/>
<path d="M12 10.059C11.9014 10.0586 11.8037 10.0777 11.7125 10.1153C11.6214 10.1528 11.5385 10.2081 11.4688 10.2778C11.3991 10.3475 11.3438 10.4303 11.3063 10.5215C11.2687 10.6127 11.2496 10.7104 11.25 10.809V16.226C11.25 16.3245 11.2694 16.422 11.3071 16.513C11.3448 16.604 11.4 16.6867 11.4697 16.7563C11.5393 16.826 11.622 16.8812 11.713 16.9189C11.804 16.9566 11.9015 16.976 12 16.976C12.0985 16.976 12.196 16.9566 12.287 16.9189C12.378 16.8812 12.4607 16.826 12.5303 16.7563C12.6 16.6867 12.6552 16.604 12.6929 16.513C12.7306 16.422 12.75 16.3245 12.75 16.226V10.809C12.7237 10.6194 12.6362 10.4435 12.5009 10.3081C12.3655 10.1728 12.1896 10.0853 12 10.059Z" fill="#333333"/>
</svg>
