<svg width="130" height="130" viewBox="0 0 130 130" fill="none" xmlns="http://www.w3.org/2000/svg">
  <path d="M96.59 113.75H33.3938C32.6027 113.742 31.8212 113.577 31.0936 113.267C30.3661 112.956 29.7068 112.505 29.1535 111.94C28.6003 111.375 28.1637 110.706 27.869 109.972C27.5742 109.238 27.4268 108.453 27.4354 107.662V69.0517H27.1375C25.5719 69.0434 24.0718 68.4226 22.9582 67.3222C21.8446 66.2217 21.206 64.7291 21.1792 63.1637V51.7563C21.1776 50.1685 21.8025 48.6443 22.9181 47.5145C24.0337 46.3847 25.5499 45.7406 27.1375 45.7221H45.1208C41.8207 44.3027 38.9943 41.9706 36.9742 39C36.1725 37.6606 35.6571 36.1697 35.4604 34.6212C35.2637 33.0727 35.39 31.5002 35.8313 30.0029C36.5603 27.2477 38.1745 24.8084 40.4256 23.0605C42.6766 21.3125 45.4397 20.3527 48.2896 20.3287H48.4196C49.4985 20.3218 50.5735 20.4602 51.6154 20.7404C56.6367 22.0892 61.1758 27.6358 64.6588 36.7846C67.4917 28.7733 72.4804 18.7796 80.1396 16.7429C81.3589 16.4181 82.6152 16.2524 83.8771 16.25H83.9583C87.1614 16.264 90.2707 17.3327 92.8055 19.2909C95.3404 21.249 97.1596 23.9876 97.9821 27.0833C98.4959 28.787 98.6428 30.5803 98.4131 32.3449C98.1834 34.1095 97.5824 35.8054 96.6496 37.3208C93.9876 41.1791 90.2066 44.1283 85.8163 45.7708H103.036C104.566 45.801 106.023 46.4313 107.093 47.5258C107.651 48.0776 108.093 48.7349 108.394 49.4593C108.696 50.1837 108.85 50.9608 108.848 51.7454V63.0554C108.848 64.6357 108.22 66.1512 107.103 67.2686C105.985 68.386 104.47 69.0137 102.89 69.0137H102.608V107.792C102.585 109.375 101.942 110.886 100.817 112.001C99.6913 113.115 98.1737 113.743 96.59 113.75V113.75Z" stroke="#2B2B2B" stroke-width="6" stroke-linecap="round" stroke-linejoin="round"/>
  <path d="M42.1796 45.7384H98.6158" stroke="#2B2B2B" stroke-width="6" stroke-miterlimit="10"/>
  <path d="M25.6317 69.0083H102.727" stroke="#2B2B2B" stroke-width="6" stroke-miterlimit="10" stroke-linecap="round"/>
  <path d="M56.8533 46.1176V113.75" stroke="#2B2B2B" stroke-width="6" stroke-miterlimit="10" stroke-linecap="round"/>
  <path d="M74.2733 46.1176V113.75" stroke="#2B2B2B" stroke-width="6" stroke-miterlimit="10" stroke-linecap="round"/>
  <path d="M54.99 44.4167C54.99 44.4167 65.0054 29.4504 75.0317 44.4167" stroke="#2B2B2B" stroke-width="6" stroke-miterlimit="10"/>
</svg>
