<svg width="24" height="24" viewBox="0 0 24 24" fill="none" xmlns="http://www.w3.org/2000/svg">
<path d="M16.57 16.625C17.5053 16.6256 18.4112 16.2984 19.1303 15.7004C19.8493 15.1023 20.3361 14.2712 20.506 13.3515C20.6759 12.4318 20.5181 11.4816 20.0601 10.6662C19.6021 9.85072 18.8728 9.22154 17.999 8.888L18.025 8.45C18.0251 7.5166 17.6987 6.61255 17.1024 5.89442C16.5062 5.17629 15.6775 4.68931 14.76 4.51779C13.8425 4.34628 12.8939 4.50104 12.0784 4.95527C11.263 5.4095 10.6321 6.1346 10.295 7.005L10.181 6.905C9.74412 6.53658 9.21109 6.30062 8.64465 6.22487C8.0782 6.14911 7.5019 6.23673 6.98357 6.47741C6.46523 6.71809 6.02642 7.10182 5.71878 7.58343C5.41113 8.06505 5.24745 8.62452 5.247 9.196L5.264 9.362C4.53052 9.82475 3.9673 10.5134 3.65922 11.324C3.35113 12.1347 3.31487 13.0236 3.55589 13.8567C3.79692 14.6898 4.30217 15.4219 4.99552 15.9429C5.68887 16.4639 6.53275 16.7454 7.4 16.745" stroke="#333333" stroke-linecap="round" stroke-linejoin="round"/>
<path d="M8.98499 13.482L11.985 10.482L14.985 13.482" stroke="#333333" stroke-linecap="round" stroke-linejoin="round"/>
<path d="M11.987 10.482V19.459" stroke="#333333" stroke-linecap="round" stroke-linejoin="round"/>
</svg>
