<svg width="24" height="24" viewBox="0 0 24 24" fill="none" xmlns="http://www.w3.org/2000/svg">
<path d="M6.833 14.592C8.12148 14.592 9.166 13.5475 9.166 12.259C9.166 10.9705 8.12148 9.92599 6.833 9.92599C5.54452 9.92599 4.5 10.9705 4.5 12.259C4.5 13.5475 5.54452 14.592 6.833 14.592Z" stroke="#333333" stroke-miterlimit="10" stroke-linecap="round"/>
<path d="M15.389 9.666C16.6775 9.666 17.722 8.62148 17.722 7.333C17.722 6.04452 16.6775 5 15.389 5C14.1005 5 13.056 6.04452 13.056 7.333C13.056 8.62148 14.1005 9.666 15.389 9.666Z" stroke="#333333" stroke-miterlimit="10" stroke-linecap="round"/>
<path d="M15.389 19.453C16.6775 19.453 17.722 18.4085 17.722 17.12C17.722 15.8315 16.6775 14.787 15.389 14.787C14.1005 14.787 13.056 15.8315 13.056 17.12C13.056 18.4085 14.1005 19.453 15.389 19.453Z" stroke="#333333" stroke-miterlimit="10" stroke-linecap="round"/>
<path d="M8.907 10.768L13.25 8.694" stroke="#333333" stroke-miterlimit="10" stroke-linecap="round"/>
<path d="M13.25 15.824L8.907 13.685" stroke="#333333" stroke-miterlimit="10" stroke-linecap="round"/>
</svg>
