<svg width="24" height="24" viewBox="0 0 24 24" fill="none" xmlns="http://www.w3.org/2000/svg">
<path d="M11.8065 15.0504C13.4825 15.0504 14.8411 13.6917 14.8411 12.0158C14.8411 10.3398 13.4825 8.98115 11.8065 8.98115C10.1306 8.98115 8.77191 10.3398 8.77191 12.0158C8.77191 13.6917 10.1306 15.0504 11.8065 15.0504Z" stroke="#333333" stroke-miterlimit="10"/>
<path d="M19.2784 14.1459L17.9195 13.3771C17.7655 13.2967 17.6397 13.1713 17.559 13.0175C17.4782 12.8638 17.4463 12.689 17.4675 12.5167C17.4675 12.335 17.5125 12.1984 17.5125 12.0182V11.5168C17.4911 11.3444 17.523 11.1696 17.6038 11.0158C17.6845 10.862 17.8104 10.7366 17.9645 10.6564L19.3234 9.8861C19.4159 9.82477 19.4815 9.7305 19.5069 9.62249C19.5323 9.51447 19.5155 9.40085 19.46 9.30475L17.9645 6.76138C17.903 6.66916 17.8086 6.60385 17.7006 6.57874C17.5926 6.55363 17.4791 6.57061 17.3832 6.62622L16.0257 7.39504C15.8789 7.47777 15.7117 7.51742 15.5433 7.50945C15.3749 7.50148 15.2122 7.44621 15.0738 7.34999C14.803 7.15765 14.515 6.99078 14.2134 6.85149C14.0533 6.78328 13.9165 6.66979 13.8199 6.52495C13.7234 6.38011 13.6712 6.21023 13.6699 6.03616V4.4084C13.6702 4.35502 13.6601 4.3021 13.64 4.25267C13.6199 4.20323 13.5902 4.15825 13.5526 4.12031C13.5151 4.08236 13.4704 4.05221 13.4212 4.03156C13.372 4.01092 13.3192 4.00019 13.2658 4H10.3111C10.2579 3.99981 10.2051 4.01011 10.1559 4.03031C10.1066 4.05051 10.0618 4.08022 10.024 4.11774C9.98621 4.15526 9.95618 4.19985 9.93563 4.24897C9.91508 4.2981 9.9044 4.35079 9.90421 4.40404V5.9911C9.90284 6.16517 9.85068 6.33505 9.75412 6.47989C9.65756 6.62473 9.52081 6.73822 9.36065 6.80643C9.0643 6.95553 8.777 7.12198 8.50027 7.30494C8.35343 7.40125 8.18337 7.45626 8.00794 7.46419C7.83252 7.47212 7.65819 7.43267 7.50326 7.34999L6.14438 6.57971C6.00921 6.39949 5.73744 6.4896 5.60082 6.67127L4.10677 9.20447C4.0491 9.30123 4.03111 9.41656 4.05658 9.52628C4.08205 9.63601 4.14899 9.73162 4.24339 9.79308L5.60082 10.5634C5.74821 10.6512 5.86851 10.778 5.94851 10.9298C6.02851 11.0816 6.0651 11.2525 6.05427 11.4237C6.05427 11.604 6.00921 11.7856 6.00921 11.9208V12.3742C6.02986 12.5467 5.99754 12.7214 5.91654 12.8751C5.83555 13.0288 5.70972 13.1542 5.55577 13.2346L4.19397 14.0005C4.10175 14.0621 4.03644 14.1565 4.01133 14.2645C3.98622 14.3725 4.0032 14.486 4.05881 14.5819L5.55286 17.2546C5.61441 17.3468 5.70878 17.4121 5.81678 17.4373C5.92478 17.4624 6.03828 17.4454 6.1342 17.3898L7.49309 16.6195C7.64022 16.5376 7.80729 16.4984 7.97548 16.5064C8.14368 16.5144 8.30631 16.5691 8.44504 16.6646C8.71517 16.8579 9.0033 17.0249 9.30543 17.1631C9.46536 17.2316 9.60191 17.3451 9.69842 17.4899C9.79494 17.6347 9.84725 17.8044 9.84898 17.9784V19.564C9.8486 19.6173 9.85877 19.6702 9.8789 19.7195C9.89903 19.7689 9.92873 19.8137 9.96629 19.8516C10.0038 19.8894 10.0485 19.9194 10.0977 19.9399C10.1469 19.9604 10.1997 19.9709 10.253 19.9709H13.2048C13.2582 19.9713 13.3111 19.9612 13.3605 19.941C13.4099 19.9209 13.4549 19.8913 13.4929 19.8537C13.5308 19.8162 13.561 19.7715 13.5816 19.7223C13.6023 19.6731 13.613 19.6203 13.6132 19.5669V17.9929C13.6145 17.8188 13.6667 17.649 13.7633 17.5041C13.8598 17.3593 13.9966 17.2458 14.1567 17.1776C14.4587 17.0391 14.7468 16.8722 15.0171 16.6791C15.1558 16.5843 15.3181 16.5298 15.486 16.5219C15.6538 16.5139 15.8206 16.5528 15.9676 16.634L17.3265 17.4043C17.4224 17.4599 17.5359 17.4769 17.6439 17.4518C17.7519 17.4267 17.8463 17.3614 17.9078 17.2691L19.415 14.7272C19.48 14.6541 19.5135 14.5581 19.508 14.4604C19.5026 14.3626 19.4587 14.271 19.3859 14.2055C19.3534 14.1801 19.3171 14.16 19.2784 14.1459V14.1459Z" stroke="#333333" stroke-miterlimit="10"/>
</svg>
